<svg id="visual" viewBox="0 0 1200 200" width="1200" height="200" xmlns="http://www.w3.org/2000/svg" xmlns:xlink="http://www.w3.org/1999/xlink" version="1.1"><rect x="0" y="0" width="1200" height="200" fill="#fff"></rect><path d="M0 123L28.5 125.5C57 128 114 133 171.2 134C228.3 135 285.7 132 342.8 131.8C400 131.7 457 134.3 514.2 137.2C571.3 140 628.7 143 685.8 143.8C743 144.7 800 143.3 857.2 142.7C914.3 142 971.7 142 1028.8 138.5C1086 135 1143 128 1171.5 124.5L1200 121L1200 201L1171.5 201C1143 201 1086 201 1028.8 201C971.7 201 914.3 201 857.2 201C800 201 743 201 685.8 201C628.7 201 571.3 201 514.2 201C457 201 400 201 342.8 201C285.7 201 228.3 201 171.2 201C114 201 57 201 28.5 201L0 201Z" fill="#fff2d7"></path><path d="M0 143L28.5 143.5C57 144 114 145 171.2 145.8C228.3 146.7 285.7 147.3 342.8 145.5C400 143.7 457 139.3 514.2 140.5C571.3 141.7 628.7 148.3 685.8 149C743 149.7 800 144.3 857.2 140.7C914.3 137 971.7 135 1028.8 134.7C1086 134.3 1143 135.7 1171.5 136.3L1200 137L1200 201L1171.5 201C1143 201 1086 201 1028.8 201C971.7 201 914.3 201 857.2 201C800 201 743 201 685.8 201C628.7 201 571.3 201 514.2 201C457 201 400 201 342.8 201C285.7 201 228.3 201 171.2 201C114 201 57 201 28.5 201L0 201Z" fill="#fff8e8"></path><path d="M0 153L28.5 152C57 151 114 149 171.2 148.3C228.3 147.7 285.7 148.3 342.8 150C400 151.7 457 154.3 514.2 157.5C571.3 160.7 628.7 164.3 685.8 163.8C743 163.3 800 158.7 857.2 158.5C914.3 158.3 971.7 162.7 1028.8 164.2C1086 165.7 1143 164.3 1171.5 163.7L1200 163L1200 201L1171.5 201C1143 201 1086 201 1028.8 201C971.7 201 914.3 201 857.2 201C800 201 743 201 685.8 201C628.7 201 571.3 201 514.2 201C457 201 400 201 342.8 201C285.7 201 228.3 201 171.2 201C114 201 57 201 28.5 201L0 201Z" fill="#fffdf9"></path><path d="M0 172L28.5 172.7C57 173.3 114 174.7 171.2 175.8C228.3 177 285.7 178 342.8 177C400 176 457 173 514.2 172.2C571.3 171.3 628.7 172.7 685.8 173.7C743 174.7 800 175.3 857.2 175.3C914.3 175.3 971.7 174.7 1028.8 172.8C1086 171 1143 168 1171.5 166.5L1200 165L1200 201L1171.5 201C1143 201 1086 201 1028.8 201C971.7 201 914.3 201 857.2 201C800 201 743 201 685.8 201C628.7 201 571.3 201 514.2 201C457 201 400 201 342.8 201C285.7 201 228.3 201 171.2 201C114 201 57 201 28.5 201L0 201Z" fill="#fffefa"></path><path d="M0 189L28.5 188.5C57 188 114 187 171.2 184.7C228.3 182.3 285.7 178.7 342.8 177C400 175.3 457 175.7 514.2 177.2C571.3 178.7 628.7 181.3 685.8 181.8C743 182.3 800 180.7 857.2 179.8C914.3 179 971.7 179 1028.8 179.2C1086 179.3 1143 179.7 1171.5 179.8L1200 180L1200 201L1171.5 201C1143 201 1086 201 1028.8 201C971.7 201 914.3 201 857.2 201C800 201 743 201 685.8 201C628.7 201 571.3 201 514.2 201C457 201 400 201 342.8 201C285.7 201 228.3 201 171.2 201C114 201 57 201 28.5 201L0 201Z" fill="#fffefb"></path></svg>