<svg id="visual" viewBox="0 0 900 450" width="900" height="450" xmlns="http://www.w3.org/2000/svg" xmlns:xlink="http://www.w3.org/1999/xlink" version="1.1"><rect x="0" y="0" width="900" height="450" fill="#931C1C"></rect><path d="M0 355L75 342L150 364L225 348L300 340L375 374L450 336L525 337L600 372L675 362L750 357L825 339L900 355L900 451L825 451L750 451L675 451L600 451L525 451L450 451L375 451L300 451L225 451L150 451L75 451L0 451Z" fill="#f5730a"></path><path d="M0 368L75 374L150 360L225 386L300 360L375 374L450 376L525 393L600 389L675 387L750 381L825 380L900 358L900 451L825 451L750 451L675 451L600 451L525 451L450 451L375 451L300 451L225 451L150 451L75 451L0 451Z" fill="#da5b09"></path><path d="M0 372L75 384L150 386L225 391L300 390L375 381L450 406L525 395L600 387L675 384L750 409L825 398L900 406L900 451L825 451L750 451L675 451L600 451L525 451L450 451L375 451L300 451L225 451L150 451L75 451L0 451Z" fill="#be4407"></path><path d="M0 424L75 411L150 399L225 420L300 417L375 400L450 419L525 421L600 403L675 397L750 409L825 420L900 402L900 451L825 451L750 451L675 451L600 451L525 451L450 451L375 451L300 451L225 451L150 451L75 451L0 451Z" fill="#a32d04"></path><path d="M0 415L75 425L150 438L225 438L300 439L375 427L450 429L525 429L600 417L675 424L750 420L825 420L900 428L900 451L825 451L750 451L675 451L600 451L525 451L450 451L375 451L300 451L225 451L150 451L75 451L0 451Z" fill="#871400"></path></svg>